<svg xmlns="http://www.w3.org/2000/svg" width="192" height="192" viewBox="0 0 192 192">
  <rect width="192" height="192" rx="32" fill="#F59E0B"/>
  <path d="M96 36c-33.137 0-60 26.863-60 60s26.863 60 60 60 60-26.863 60-60-26.863-60-60-60zm0 108c-26.51 0-48-21.49-48-48s21.49-48 48-48 48 21.49 48 48-21.49 48-48 48z" fill="white"/>
  <path d="M96 60c-19.882 0-36 16.118-36 36s16.118 36 36 36 36-16.118 36-36-16.118-36-36-36zm-12 54v-36l30 18-30 18z" fill="white"/>
  <text x="96" y="105" font-family="Arial, sans-serif" font-size="40" font-weight="bold" fill="white" text-anchor="middle">Es</text>
</svg>
